<svg width="432" height="211" viewBox="0 0 432 211" fill="none" xmlns="http://www.w3.org/2000/svg">
<rect width="432" height="211" fill="#F5F5F5"/>
<rect y="1" width="256" height="171" fill="#D9D9D9"/>
<path d="M0 0.5H256V23.5H0V0.5Z" fill="#FFAF02"/>
<rect y="143" width="256" height="29" fill="#313356"/>
<rect y="23" width="161" height="70" fill="#FFAF02"/>
<rect x="8" y="103" width="139" height="30" fill="#1C8EB8"/>
<rect x="174" y="33" width="68" height="47" fill="#FFF4F4"/>
<rect x="174" y="86" width="68" height="47" fill="#FFF4F4"/>
<path d="M74.3263 56V47.2727H75.3832V51.1591H80.0366V47.2727H81.0934V56H80.0366V52.0966H75.3832V56H74.3263ZM86.1239 47.2727V56H85.0671V48.3807H85.016L82.8853 49.7955V48.7216L85.0671 47.2727H86.1239ZM37.5385 71L35.1522 62.2727H36.226L38.0499 69.3807H38.1351L39.9931 62.2727H41.1863L43.0442 69.3807H43.1294L44.9533 62.2727H46.0272L43.6408 71H42.5499L40.6238 64.0455H40.5556L38.6294 71H37.5385ZM47.3439 71V62.2727H52.611V63.2102H48.4007V66.1591H52.3382V67.0966H48.4007V70.0625H52.6792V71H47.3439ZM54.5158 71V62.2727H55.5726V70.0625H59.6294V71H54.5158ZM67.9487 65H66.8919C66.8294 64.696 66.72 64.429 66.5637 64.1989C66.4103 63.9688 66.2228 63.7756 66.0012 63.6193C65.7825 63.4602 65.5396 63.3409 65.2725 63.2614C65.0055 63.1818 64.7271 63.142 64.4373 63.142C63.9089 63.142 63.4302 63.2756 63.0012 63.5426C62.5751 63.8097 62.2356 64.2031 61.9828 64.723C61.7328 65.2429 61.6078 65.8807 61.6078 66.6364C61.6078 67.392 61.7328 68.0298 61.9828 68.5497C62.2356 69.0696 62.5751 69.4631 63.0012 69.7301C63.4302 69.9972 63.9089 70.1307 64.4373 70.1307C64.7271 70.1307 65.0055 70.0909 65.2725 70.0114C65.5396 69.9318 65.7825 69.8139 66.0012 69.6577C66.2228 69.4986 66.4103 69.304 66.5637 69.0739C66.72 68.8409 66.8294 68.5739 66.8919 68.2727H67.9487C67.8691 68.7187 67.7243 69.1179 67.514 69.4702C67.3038 69.8224 67.0424 70.1222 66.7299 70.3693C66.4174 70.6136 66.0666 70.7997 65.6774 70.9276C65.291 71.0554 64.8777 71.1193 64.4373 71.1193C63.693 71.1193 63.0311 70.9375 62.4515 70.5739C61.872 70.2102 61.416 69.6932 61.0836 69.0227C60.7512 68.3523 60.585 67.5568 60.585 66.6364C60.585 65.7159 60.7512 64.9205 61.0836 64.25C61.416 63.5795 61.872 63.0625 62.4515 62.6989C63.0311 62.3352 63.693 62.1534 64.4373 62.1534C64.8777 62.1534 65.291 62.2173 65.6774 62.3452C66.0666 62.473 66.4174 62.6605 66.7299 62.9077C67.0424 63.152 67.3038 63.4503 67.514 63.8026C67.7243 64.152 67.8691 64.5511 67.9487 65ZM77.0201 66.6364C77.0201 67.5568 76.8539 68.3523 76.5215 69.0227C76.1891 69.6932 75.7331 70.2102 75.1536 70.5739C74.574 70.9375 73.9121 71.1193 73.1678 71.1193C72.4235 71.1193 71.7615 70.9375 71.182 70.5739C70.6025 70.2102 70.1465 69.6932 69.8141 69.0227C69.4817 68.3523 69.3155 67.5568 69.3155 66.6364C69.3155 65.7159 69.4817 64.9205 69.8141 64.25C70.1465 63.5795 70.6025 63.0625 71.182 62.6989C71.7615 62.3352 72.4235 62.1534 73.1678 62.1534C73.9121 62.1534 74.574 62.3352 75.1536 62.6989C75.7331 63.0625 76.1891 63.5795 76.5215 64.25C76.8539 64.9205 77.0201 65.7159 77.0201 66.6364ZM75.9973 66.6364C75.9973 65.8807 75.8709 65.2429 75.6181 64.723C75.3681 64.2031 75.0286 63.8097 74.5996 63.5426C74.1735 63.2756 73.6962 63.142 73.1678 63.142C72.6394 63.142 72.1607 63.2756 71.7317 63.5426C71.3056 63.8097 70.9661 64.2031 70.7132 64.723C70.4632 65.2429 70.3382 65.8807 70.3382 66.6364C70.3382 67.392 70.4632 68.0298 70.7132 68.5497C70.9661 69.0696 71.3056 69.4631 71.7317 69.7301C72.1607 69.9972 72.6394 70.1307 73.1678 70.1307C73.6962 70.1307 74.1735 69.9972 74.5996 69.7301C75.0286 69.4631 75.3681 69.0696 75.6181 68.5497C75.8709 68.0298 75.9973 67.392 75.9973 66.6364ZM78.7971 62.2727H80.0584L83.0243 69.517H83.1266L86.0925 62.2727H87.3539V71H86.3652V64.3693H86.28L83.5527 71H82.5982L79.8709 64.3693H79.7857V71H78.7971V62.2727ZM89.4728 71V62.2727H94.7399V63.2102H90.5297V66.1591H94.4672V67.0966H90.5297V70.0625H94.8081V71H89.4728ZM100.02 71V62.2727H102.969C103.653 62.2727 104.213 62.3963 104.648 62.6435C105.085 62.8878 105.409 63.2188 105.619 63.6364C105.829 64.054 105.934 64.5199 105.934 65.0341C105.934 65.5483 105.829 66.0156 105.619 66.4361C105.412 66.8565 105.091 67.1918 104.656 67.4418C104.221 67.6889 103.665 67.8125 102.986 67.8125H100.872V66.875H102.952C103.42 66.875 103.797 66.794 104.081 66.6321C104.365 66.4702 104.571 66.2514 104.699 65.9759C104.829 65.6974 104.895 65.3835 104.895 65.0341C104.895 64.6847 104.829 64.3722 104.699 64.0966C104.571 63.821 104.363 63.6051 104.077 63.4489C103.79 63.2898 103.409 63.2102 102.934 63.2102H101.077V71H100.02ZM107.104 71H105.996L109.201 62.2727H110.292L113.496 71H112.388L109.78 63.6534H109.712L107.104 71ZM107.513 67.5909H111.979V68.5284H107.513V67.5909ZM120.411 65C120.318 64.7131 120.194 64.456 120.041 64.2287C119.89 63.9986 119.71 63.8026 119.499 63.6406C119.292 63.4787 119.056 63.3551 118.792 63.2699C118.528 63.1847 118.238 63.142 117.923 63.142C117.406 63.142 116.936 63.2756 116.512 63.5426C116.089 63.8097 115.752 64.2031 115.502 64.723C115.252 65.2429 115.127 65.8807 115.127 66.6364C115.127 67.392 115.254 68.0298 115.507 68.5497C115.759 69.0696 116.102 69.4631 116.534 69.7301C116.965 69.9972 117.451 70.1307 117.991 70.1307C118.491 70.1307 118.931 70.0241 119.312 69.8111C119.695 69.5952 119.994 69.2912 120.207 68.8991C120.423 68.5043 120.531 68.0398 120.531 67.5057L120.855 67.5739H118.23V66.6364H121.553V67.5739C121.553 68.2926 121.4 68.9176 121.093 69.4489C120.789 69.9801 120.369 70.392 119.832 70.6847C119.298 70.9744 118.684 71.1193 117.991 71.1193C117.218 71.1193 116.539 70.9375 115.954 70.5739C115.372 70.2102 114.917 69.6932 114.59 69.0227C114.267 68.3523 114.105 67.5568 114.105 66.6364C114.105 65.946 114.197 65.3253 114.382 64.7741C114.569 64.2202 114.833 63.7486 115.174 63.3594C115.515 62.9702 115.919 62.6719 116.384 62.4645C116.85 62.2571 117.363 62.1534 117.923 62.1534C118.383 62.1534 118.812 62.223 119.21 62.3622C119.61 62.4986 119.967 62.6932 120.279 62.946C120.595 63.196 120.857 63.4957 121.068 63.8452C121.278 64.1918 121.423 64.5767 121.502 65H120.411ZM123.363 71V62.2727H128.631V63.2102H124.42V66.1591H128.358V67.0966H124.42V70.0625H128.699V71H123.363Z" fill="#FFF4F4"/>
<path d="M5.05682 17V8.27273H6.11364V16.0625H10.1705V17H5.05682ZM18.8306 12.6364C18.8306 13.5568 18.6644 14.3523 18.332 15.0227C17.9996 15.6932 17.5437 16.2102 16.9641 16.5739C16.3846 16.9375 15.7227 17.1193 14.9783 17.1193C14.234 17.1193 13.5721 16.9375 12.9925 16.5739C12.413 16.2102 11.957 15.6932 11.6246 15.0227C11.2923 14.3523 11.1261 13.5568 11.1261 12.6364C11.1261 11.7159 11.2923 10.9205 11.6246 10.25C11.957 9.57955 12.413 9.0625 12.9925 8.69886C13.5721 8.33523 14.234 8.15341 14.9783 8.15341C15.7227 8.15341 16.3846 8.33523 16.9641 8.69886C17.5437 9.0625 17.9996 9.57955 18.332 10.25C18.6644 10.9205 18.8306 11.7159 18.8306 12.6364ZM17.8079 12.6364C17.8079 11.8807 17.6815 11.2429 17.4286 10.723C17.1786 10.2031 16.8391 9.80966 16.4102 9.54261C15.984 9.27557 15.5067 9.14205 14.9783 9.14205C14.4499 9.14205 13.9712 9.27557 13.5423 9.54261C13.1161 9.80966 12.7766 10.2031 12.5238 10.723C12.2738 11.2429 12.1488 11.8807 12.1488 12.6364C12.1488 13.392 12.2738 14.0298 12.5238 14.5497C12.7766 15.0696 13.1161 15.4631 13.5423 15.7301C13.9712 15.9972 14.4499 16.1307 14.9783 16.1307C15.5067 16.1307 15.984 15.9972 16.4102 15.7301C16.8391 15.4631 17.1786 15.0696 17.4286 14.5497C17.6815 14.0298 17.8079 13.392 17.8079 12.6364ZM26.5735 11C26.4798 10.7131 26.3562 10.456 26.2028 10.2287C26.0522 9.99858 25.8718 9.80256 25.6616 9.64062C25.4542 9.47869 25.2184 9.35511 24.9542 9.26989C24.69 9.18466 24.4002 9.14205 24.0849 9.14205C23.5678 9.14205 23.0977 9.27557 22.6744 9.54261C22.2511 9.80966 21.9144 10.2031 21.6644 10.723C21.4144 11.2429 21.2894 11.8807 21.2894 12.6364C21.2894 13.392 21.4158 14.0298 21.6687 14.5497C21.9215 15.0696 22.2638 15.4631 22.6957 15.7301C23.1275 15.9972 23.6133 16.1307 24.1531 16.1307C24.6531 16.1307 25.0934 16.0241 25.4741 15.8111C25.8576 15.5952 26.1559 15.2912 26.369 14.8991C26.5849 14.5043 26.6928 14.0398 26.6928 13.5057L27.0167 13.5739H24.3917V12.6364H27.7156V13.5739C27.7156 14.2926 27.5621 14.9176 27.2553 15.4489C26.9513 15.9801 26.5309 16.392 25.994 16.6847C25.4599 16.9744 24.8462 17.1193 24.1531 17.1193C23.3803 17.1193 22.7013 16.9375 22.1161 16.5739C21.5337 16.2102 21.0792 15.6932 20.7525 15.0227C20.4286 14.3523 20.2667 13.5568 20.2667 12.6364C20.2667 11.946 20.359 11.3253 20.5437 10.7741C20.7312 10.2202 20.9954 9.74858 21.3363 9.35938C21.6772 8.97017 22.0806 8.67188 22.5465 8.46449C23.0124 8.2571 23.5252 8.15341 24.0849 8.15341C24.5451 8.15341 24.9741 8.22301 25.3718 8.36222C25.7724 8.49858 26.1289 8.69318 26.4414 8.94602C26.7567 9.19602 27.0195 9.49574 27.2298 9.84517C27.44 10.1918 27.5849 10.5767 27.6644 11H26.5735ZM36.8892 12.6364C36.8892 13.5568 36.723 14.3523 36.3906 15.0227C36.0582 15.6932 35.6023 16.2102 35.0227 16.5739C34.4432 16.9375 33.7813 17.1193 33.0369 17.1193C32.2926 17.1193 31.6307 16.9375 31.0511 16.5739C30.4716 16.2102 30.0156 15.6932 29.6832 15.0227C29.3509 14.3523 29.1847 13.5568 29.1847 12.6364C29.1847 11.7159 29.3509 10.9205 29.6832 10.25C30.0156 9.57955 30.4716 9.0625 31.0511 8.69886C31.6307 8.33523 32.2926 8.15341 33.0369 8.15341C33.7813 8.15341 34.4432 8.33523 35.0227 8.69886C35.6023 9.0625 36.0582 9.57955 36.3906 10.25C36.723 10.9205 36.8892 11.7159 36.8892 12.6364ZM35.8665 12.6364C35.8665 11.8807 35.7401 11.2429 35.4872 10.723C35.2372 10.2031 34.8977 9.80966 34.4688 9.54261C34.0426 9.27557 33.5653 9.14205 33.0369 9.14205C32.5085 9.14205 32.0298 9.27557 31.6009 9.54261C31.1747 9.80966 30.8352 10.2031 30.5824 10.723C30.3324 11.2429 30.2074 11.8807 30.2074 12.6364C30.2074 13.392 30.3324 14.0298 30.5824 14.5497C30.8352 15.0696 31.1747 15.4631 31.6009 15.7301C32.0298 15.9972 32.5085 16.1307 33.0369 16.1307C33.5653 16.1307 34.0426 15.9972 34.4688 15.7301C34.8977 15.4631 35.2372 15.0696 35.4872 14.5497C35.7401 14.0298 35.8665 13.392 35.8665 12.6364Z" fill="#FFF4F4"/>
<path d="M107.977 8.27273V17H106.955L102.199 10.1477H102.114V17H101.057V8.27273H102.08L106.852 15.142H106.938V8.27273H107.977ZM110.45 17H109.342L112.547 8.27273H113.637L116.842 17H115.734L113.126 9.65341H113.058L110.45 17ZM110.859 13.5909H115.325V14.5284H110.859V13.5909ZM117.739 8.27273L120.33 15.6193H120.432L123.023 8.27273H124.131L120.926 17H119.836L116.631 8.27273H117.739ZM128.865 8.27273H130.127L133.093 15.517H133.195L136.161 8.27273H137.422V17H136.434V10.3693H136.348L133.621 17H132.667L129.939 10.3693H129.854V17H128.865V8.27273ZM139.541 17V8.27273H144.808V9.21023H140.598V12.1591H144.536V13.0966H140.598V16.0625H144.876V17H139.541ZM153.634 8.27273V17H152.611L147.855 10.1477H147.77V17H146.713V8.27273H147.736L152.509 15.142H152.594V8.27273H153.634ZM161.475 8.27273H162.532V14.0511C162.532 14.6477 162.392 15.1804 162.11 15.6491C161.832 16.1151 161.439 16.483 160.93 16.7528C160.422 17.0199 159.825 17.1534 159.14 17.1534C158.456 17.1534 157.859 17.0199 157.35 16.7528C156.842 16.483 156.447 16.1151 156.166 15.6491C155.887 15.1804 155.748 14.6477 155.748 14.0511V8.27273H156.805V13.9659C156.805 14.392 156.899 14.7713 157.086 15.1037C157.274 15.4332 157.541 15.6932 157.887 15.8835C158.237 16.071 158.654 16.1648 159.14 16.1648C159.626 16.1648 160.044 16.071 160.393 15.8835C160.743 15.6932 161.01 15.4332 161.194 15.1037C161.382 14.7713 161.475 14.392 161.475 13.9659V8.27273Z" fill="#FFF4F4"/>
<path d="M203.057 17V8.27273H206.108C206.716 8.27273 207.217 8.37784 207.612 8.58807C208.007 8.79545 208.301 9.07528 208.494 9.42756C208.688 9.77699 208.784 10.1648 208.784 10.5909C208.784 10.9659 208.717 11.2756 208.584 11.5199C208.453 11.7642 208.28 11.9574 208.064 12.0994C207.851 12.2415 207.619 12.3466 207.369 12.4148V12.5C207.636 12.517 207.905 12.6108 208.175 12.7812C208.445 12.9517 208.67 13.196 208.852 13.5142C209.034 13.8324 209.125 14.2216 209.125 14.6818C209.125 15.1193 209.026 15.5128 208.827 15.8622C208.628 16.2116 208.314 16.4886 207.885 16.6932C207.456 16.8977 206.898 17 206.21 17H203.057ZM204.114 16.0625H206.21C206.901 16.0625 207.391 15.929 207.68 15.6619C207.973 15.392 208.119 15.0653 208.119 14.6818C208.119 14.3864 208.044 14.1136 207.893 13.8636C207.743 13.6108 207.528 13.4091 207.25 13.2585C206.972 13.1051 206.642 13.0284 206.261 13.0284H204.114V16.0625ZM204.114 12.108H206.074C206.392 12.108 206.679 12.0455 206.935 11.9205C207.193 11.7955 207.398 11.6193 207.548 11.392C207.702 11.1648 207.778 10.8977 207.778 10.5909C207.778 10.2074 207.645 9.8821 207.378 9.61506C207.111 9.34517 206.688 9.21023 206.108 9.21023H204.114V12.108ZM218.225 12.6364C218.225 13.5568 218.059 14.3523 217.727 15.0227C217.394 15.6932 216.938 16.2102 216.359 16.5739C215.779 16.9375 215.117 17.1193 214.373 17.1193C213.629 17.1193 212.967 16.9375 212.387 16.5739C211.808 16.2102 211.352 15.6932 211.019 15.0227C210.687 14.3523 210.521 13.5568 210.521 12.6364C210.521 11.7159 210.687 10.9205 211.019 10.25C211.352 9.57955 211.808 9.0625 212.387 8.69886C212.967 8.33523 213.629 8.15341 214.373 8.15341C215.117 8.15341 215.779 8.33523 216.359 8.69886C216.938 9.0625 217.394 9.57955 217.727 10.25C218.059 10.9205 218.225 11.7159 218.225 12.6364ZM217.202 12.6364C217.202 11.8807 217.076 11.2429 216.823 10.723C216.573 10.2031 216.234 9.80966 215.805 9.54261C215.379 9.27557 214.901 9.14205 214.373 9.14205C213.844 9.14205 213.366 9.27557 212.937 9.54261C212.511 9.80966 212.171 10.2031 211.918 10.723C211.668 11.2429 211.543 11.8807 211.543 12.6364C211.543 13.392 211.668 14.0298 211.918 14.5497C212.171 15.0696 212.511 15.4631 212.937 15.7301C213.366 15.9972 213.844 16.1307 214.373 16.1307C214.901 16.1307 215.379 15.9972 215.805 15.7301C216.234 15.4631 216.573 15.0696 216.823 14.5497C217.076 14.0298 217.202 13.392 217.202 12.6364ZM219.162 9.21023V8.27273H225.707V9.21023H222.963V17H221.906V9.21023H219.162ZM234.338 12.6364C234.338 13.5568 234.172 14.3523 233.84 15.0227C233.507 15.6932 233.051 16.2102 232.472 16.5739C231.892 16.9375 231.23 17.1193 230.486 17.1193C229.742 17.1193 229.08 16.9375 228.5 16.5739C227.921 16.2102 227.465 15.6932 227.132 15.0227C226.8 14.3523 226.634 13.5568 226.634 12.6364C226.634 11.7159 226.8 10.9205 227.132 10.25C227.465 9.57955 227.921 9.0625 228.5 8.69886C229.08 8.33523 229.742 8.15341 230.486 8.15341C231.23 8.15341 231.892 8.33523 232.472 8.69886C233.051 9.0625 233.507 9.57955 233.84 10.25C234.172 10.9205 234.338 11.7159 234.338 12.6364ZM233.316 12.6364C233.316 11.8807 233.189 11.2429 232.936 10.723C232.686 10.2031 232.347 9.80966 231.918 9.54261C231.492 9.27557 231.015 9.14205 230.486 9.14205C229.958 9.14205 229.479 9.27557 229.05 9.54261C228.624 9.80966 228.284 10.2031 228.032 10.723C227.782 11.2429 227.657 11.8807 227.657 12.6364C227.657 13.392 227.782 14.0298 228.032 14.5497C228.284 15.0696 228.624 15.4631 229.05 15.7301C229.479 15.9972 229.958 16.1307 230.486 16.1307C231.015 16.1307 231.492 15.9972 231.918 15.7301C232.347 15.4631 232.686 15.0696 232.936 14.5497C233.189 14.0298 233.316 13.392 233.316 12.6364ZM243.036 8.27273V17H242.013L237.257 10.1477H237.172V17H236.115V8.27273H237.138L241.911 15.142H241.996V8.27273H243.036ZM249.923 10.4545C249.872 10.0227 249.665 9.6875 249.301 9.44886C248.938 9.21023 248.491 9.09091 247.963 9.09091C247.577 9.09091 247.239 9.15341 246.949 9.27841C246.662 9.40341 246.438 9.57528 246.276 9.79403C246.116 10.0128 246.037 10.2614 246.037 10.5398C246.037 10.7727 246.092 10.973 246.203 11.1406C246.317 11.3054 246.462 11.4432 246.638 11.554C246.814 11.6619 246.999 11.7514 247.192 11.8224C247.385 11.8906 247.562 11.946 247.724 11.9886L248.611 12.2273C248.838 12.2869 249.091 12.3693 249.369 12.4744C249.651 12.5795 249.919 12.723 250.175 12.9048C250.433 13.0838 250.646 13.3139 250.814 13.5952C250.982 13.8764 251.065 14.2216 251.065 14.6307C251.065 15.1023 250.942 15.5284 250.695 15.9091C250.45 16.2898 250.092 16.5923 249.621 16.8168C249.152 17.0412 248.582 17.1534 247.912 17.1534C247.287 17.1534 246.746 17.0526 246.288 16.8509C245.834 16.6491 245.476 16.3679 245.214 16.0071C244.956 15.6463 244.81 15.2273 244.776 14.75H245.866C245.895 15.0795 246.006 15.3523 246.199 15.5682C246.395 15.7812 246.642 15.9403 246.94 16.0455C247.241 16.1477 247.565 16.1989 247.912 16.1989C248.315 16.1989 248.678 16.1335 248.999 16.0028C249.32 15.8693 249.574 15.6847 249.761 15.4489C249.949 15.2102 250.043 14.9318 250.043 14.6136C250.043 14.3239 249.962 14.0881 249.8 13.9062C249.638 13.7244 249.425 13.5767 249.161 13.4631C248.896 13.3494 248.611 13.25 248.304 13.1648L247.23 12.858C246.548 12.6619 246.009 12.3821 245.611 12.0185C245.213 11.6548 245.014 11.179 245.014 10.5909C245.014 10.1023 245.146 9.67614 245.411 9.3125C245.678 8.94602 246.036 8.66193 246.484 8.46023C246.936 8.25568 247.44 8.15341 247.997 8.15341C248.56 8.15341 249.06 8.25426 249.497 8.45597C249.935 8.65483 250.281 8.92756 250.537 9.27415C250.795 9.62074 250.932 10.0142 250.946 10.4545H249.923Z" fill="#FFF4F4"/>
<path d="M182.08 55H181.023C180.96 54.696 180.851 54.429 180.695 54.1989C180.541 53.9688 180.354 53.7756 180.132 53.6193C179.913 53.4602 179.67 53.3409 179.403 53.2614C179.136 53.1818 178.858 53.142 178.568 53.142C178.04 53.142 177.561 53.2756 177.132 53.5426C176.706 53.8097 176.366 54.2031 176.114 54.723C175.864 55.2429 175.739 55.8807 175.739 56.6364C175.739 57.392 175.864 58.0298 176.114 58.5497C176.366 59.0696 176.706 59.4631 177.132 59.7301C177.561 59.9972 178.04 60.1307 178.568 60.1307C178.858 60.1307 179.136 60.0909 179.403 60.0114C179.67 59.9318 179.913 59.8139 180.132 59.6577C180.354 59.4986 180.541 59.304 180.695 59.0739C180.851 58.8409 180.96 58.5739 181.023 58.2727H182.08C182 58.7187 181.855 59.1179 181.645 59.4702C181.435 59.8224 181.173 60.1222 180.861 60.3693C180.548 60.6136 180.197 60.7997 179.808 60.9276C179.422 61.0554 179.009 61.1193 178.568 61.1193C177.824 61.1193 177.162 60.9375 176.582 60.5739C176.003 60.2102 175.547 59.6932 175.214 59.0227C174.882 58.3523 174.716 57.5568 174.716 56.6364C174.716 55.7159 174.882 54.9205 175.214 54.25C175.547 53.5795 176.003 53.0625 176.582 52.6989C177.162 52.3352 177.824 52.1534 178.568 52.1534C179.009 52.1534 179.422 52.2173 179.808 52.3452C180.197 52.473 180.548 52.6605 180.861 52.9077C181.173 53.152 181.435 53.4503 181.645 53.8026C181.855 54.152 182 54.5511 182.08 55ZM191.151 56.6364C191.151 57.5568 190.985 58.3523 190.652 59.0227C190.32 59.6932 189.864 60.2102 189.284 60.5739C188.705 60.9375 188.043 61.1193 187.299 61.1193C186.554 61.1193 185.892 60.9375 185.313 60.5739C184.733 60.2102 184.277 59.6932 183.945 59.0227C183.613 58.3523 183.446 57.5568 183.446 56.6364C183.446 55.7159 183.613 54.9205 183.945 54.25C184.277 53.5795 184.733 53.0625 185.313 52.6989C185.892 52.3352 186.554 52.1534 187.299 52.1534C188.043 52.1534 188.705 52.3352 189.284 52.6989C189.864 53.0625 190.32 53.5795 190.652 54.25C190.985 54.9205 191.151 55.7159 191.151 56.6364ZM190.128 56.6364C190.128 55.8807 190.002 55.2429 189.749 54.723C189.499 54.2031 189.159 53.8097 188.73 53.5426C188.304 53.2756 187.827 53.142 187.299 53.142C186.77 53.142 186.292 53.2756 185.863 53.5426C185.436 53.8097 185.097 54.2031 184.844 54.723C184.594 55.2429 184.469 55.8807 184.469 56.6364C184.469 57.392 184.594 58.0298 184.844 58.5497C185.097 59.0696 185.436 59.4631 185.863 59.7301C186.292 59.9972 186.77 60.1307 187.299 60.1307C187.827 60.1307 188.304 59.9972 188.73 59.7301C189.159 59.4631 189.499 59.0696 189.749 58.5497C190.002 58.0298 190.128 57.392 190.128 56.6364ZM199.848 52.2727V61H198.826L194.07 54.1477H193.985V61H192.928V52.2727H193.951L198.723 59.142H198.809V52.2727H199.848ZM201.486 53.2102V52.2727H208.031V53.2102H205.287V61H204.23V53.2102H201.486ZM209.662 61V52.2727H214.929V53.2102H210.719V56.1591H214.657V57.0966H210.719V60.0625H214.998V61H209.662ZM223.755 52.2727V61H222.732L217.976 54.1477H217.891V61H216.834V52.2727H217.857L222.63 59.142H222.715V52.2727H223.755ZM225.392 53.2102V52.2727H231.938V53.2102H229.193V61H228.136V53.2102H225.392ZM236.79 61V60.233L239.671 57.0795C240.009 56.7102 240.287 56.3892 240.506 56.1165C240.725 55.8409 240.887 55.5824 240.992 55.3409C241.1 55.0966 241.154 54.8409 241.154 54.5739C241.154 54.267 241.08 54.0014 240.932 53.777C240.787 53.5526 240.588 53.3793 240.336 53.2571C240.083 53.1349 239.799 53.0739 239.483 53.0739C239.148 53.0739 238.855 53.1435 238.605 53.2827C238.358 53.419 238.167 53.6108 238.03 53.858C237.897 54.1051 237.83 54.3949 237.83 54.7273H236.824C236.824 54.2159 236.942 53.767 237.178 53.3807C237.414 52.9943 237.735 52.6932 238.141 52.4773C238.55 52.2614 239.009 52.1534 239.517 52.1534C240.029 52.1534 240.482 52.2614 240.877 52.4773C241.272 52.6932 241.581 52.9844 241.806 53.3509C242.03 53.7173 242.142 54.125 242.142 54.5739C242.142 54.8949 242.084 55.2088 241.968 55.5156C241.854 55.8196 241.655 56.1591 241.371 56.5341C241.09 56.9062 240.699 57.3608 240.199 57.8977L238.239 59.9943V60.0625H242.296V61H236.79Z" fill="black"/>
<path d="M56.0795 117H55.0227C54.9602 116.696 54.8509 116.429 54.6946 116.199C54.5412 115.969 54.3537 115.776 54.1321 115.619C53.9134 115.46 53.6705 115.341 53.4034 115.261C53.1364 115.182 52.858 115.142 52.5682 115.142C52.0398 115.142 51.5611 115.276 51.1321 115.543C50.706 115.81 50.3665 116.203 50.1136 116.723C49.8636 117.243 49.7386 117.881 49.7386 118.636C49.7386 119.392 49.8636 120.03 50.1136 120.55C50.3665 121.07 50.706 121.463 51.1321 121.73C51.5611 121.997 52.0398 122.131 52.5682 122.131C52.858 122.131 53.1364 122.091 53.4034 122.011C53.6705 121.932 53.9134 121.814 54.1321 121.658C54.3537 121.499 54.5412 121.304 54.6946 121.074C54.8509 120.841 54.9602 120.574 55.0227 120.273H56.0795C56 120.719 55.8551 121.118 55.6449 121.47C55.4347 121.822 55.1733 122.122 54.8608 122.369C54.5483 122.614 54.1974 122.8 53.8082 122.928C53.4219 123.055 53.0085 123.119 52.5682 123.119C51.8239 123.119 51.1619 122.938 50.5824 122.574C50.0028 122.21 49.5469 121.693 49.2145 121.023C48.8821 120.352 48.7159 119.557 48.7159 118.636C48.7159 117.716 48.8821 116.92 49.2145 116.25C49.5469 115.58 50.0028 115.062 50.5824 114.699C51.1619 114.335 51.8239 114.153 52.5682 114.153C53.0085 114.153 53.4219 114.217 53.8082 114.345C54.1974 114.473 54.5483 114.661 54.8608 114.908C55.1733 115.152 55.4347 115.45 55.6449 115.803C55.8551 116.152 56 116.551 56.0795 117ZM65.1509 118.636C65.1509 119.557 64.9847 120.352 64.6523 121.023C64.32 121.693 63.864 122.21 63.2844 122.574C62.7049 122.938 62.043 123.119 61.2987 123.119C60.5543 123.119 59.8924 122.938 59.3129 122.574C58.7333 122.21 58.2773 121.693 57.945 121.023C57.6126 120.352 57.4464 119.557 57.4464 118.636C57.4464 117.716 57.6126 116.92 57.945 116.25C58.2773 115.58 58.7333 115.062 59.3129 114.699C59.8924 114.335 60.5543 114.153 61.2987 114.153C62.043 114.153 62.7049 114.335 63.2844 114.699C63.864 115.062 64.32 115.58 64.6523 116.25C64.9847 116.92 65.1509 117.716 65.1509 118.636ZM64.1282 118.636C64.1282 117.881 64.0018 117.243 63.7489 116.723C63.4989 116.203 63.1594 115.81 62.7305 115.543C62.3043 115.276 61.8271 115.142 61.2987 115.142C60.7702 115.142 60.2915 115.276 59.8626 115.543C59.4364 115.81 59.0969 116.203 58.8441 116.723C58.5941 117.243 58.4691 117.881 58.4691 118.636C58.4691 119.392 58.5941 120.03 58.8441 120.55C59.0969 121.07 59.4364 121.463 59.8626 121.73C60.2915 121.997 60.7702 122.131 61.2987 122.131C61.8271 122.131 62.3043 121.997 62.7305 121.73C63.1594 121.463 63.4989 121.07 63.7489 120.55C64.0018 120.03 64.1282 119.392 64.1282 118.636ZM73.8484 114.273V123H72.8256L68.07 116.148H67.9847V123H66.9279V114.273H67.9506L72.7234 121.142H72.8086V114.273H73.8484ZM75.4858 115.21V114.273H82.0312V115.21H79.2869V123H78.2301V115.21H75.4858ZM83.6623 123V114.273H88.9293V115.21H84.7191V118.159H88.6566V119.097H84.7191V122.062H88.9975V123H83.6623ZM97.7546 114.273V123H96.7319L91.9762 116.148H91.891V123H90.8342V114.273H91.8569L96.6296 121.142H96.7148V114.273H97.7546ZM99.392 115.21V114.273H105.938V115.21H103.193V123H102.136V115.21H99.392ZM113.858 114.273V123H112.801V115.381H112.75L110.62 116.795V115.722L112.801 114.273H113.858Z" fill="#FFF4F4"/>
<path d="M182.08 110H181.023C180.96 109.696 180.851 109.429 180.695 109.199C180.541 108.969 180.354 108.776 180.132 108.619C179.913 108.46 179.67 108.341 179.403 108.261C179.136 108.182 178.858 108.142 178.568 108.142C178.04 108.142 177.561 108.276 177.132 108.543C176.706 108.81 176.366 109.203 176.114 109.723C175.864 110.243 175.739 110.881 175.739 111.636C175.739 112.392 175.864 113.03 176.114 113.55C176.366 114.07 176.706 114.463 177.132 114.73C177.561 114.997 178.04 115.131 178.568 115.131C178.858 115.131 179.136 115.091 179.403 115.011C179.67 114.932 179.913 114.814 180.132 114.658C180.354 114.499 180.541 114.304 180.695 114.074C180.851 113.841 180.96 113.574 181.023 113.273H182.08C182 113.719 181.855 114.118 181.645 114.47C181.435 114.822 181.173 115.122 180.861 115.369C180.548 115.614 180.197 115.8 179.808 115.928C179.422 116.055 179.009 116.119 178.568 116.119C177.824 116.119 177.162 115.938 176.582 115.574C176.003 115.21 175.547 114.693 175.214 114.023C174.882 113.352 174.716 112.557 174.716 111.636C174.716 110.716 174.882 109.92 175.214 109.25C175.547 108.58 176.003 108.062 176.582 107.699C177.162 107.335 177.824 107.153 178.568 107.153C179.009 107.153 179.422 107.217 179.808 107.345C180.197 107.473 180.548 107.661 180.861 107.908C181.173 108.152 181.435 108.45 181.645 108.803C181.855 109.152 182 109.551 182.08 110ZM191.151 111.636C191.151 112.557 190.985 113.352 190.652 114.023C190.32 114.693 189.864 115.21 189.284 115.574C188.705 115.938 188.043 116.119 187.299 116.119C186.554 116.119 185.892 115.938 185.313 115.574C184.733 115.21 184.277 114.693 183.945 114.023C183.613 113.352 183.446 112.557 183.446 111.636C183.446 110.716 183.613 109.92 183.945 109.25C184.277 108.58 184.733 108.062 185.313 107.699C185.892 107.335 186.554 107.153 187.299 107.153C188.043 107.153 188.705 107.335 189.284 107.699C189.864 108.062 190.32 108.58 190.652 109.25C190.985 109.92 191.151 110.716 191.151 111.636ZM190.128 111.636C190.128 110.881 190.002 110.243 189.749 109.723C189.499 109.203 189.159 108.81 188.73 108.543C188.304 108.276 187.827 108.142 187.299 108.142C186.77 108.142 186.292 108.276 185.863 108.543C185.436 108.81 185.097 109.203 184.844 109.723C184.594 110.243 184.469 110.881 184.469 111.636C184.469 112.392 184.594 113.03 184.844 113.55C185.097 114.07 185.436 114.463 185.863 114.73C186.292 114.997 186.77 115.131 187.299 115.131C187.827 115.131 188.304 114.997 188.73 114.73C189.159 114.463 189.499 114.07 189.749 113.55C190.002 113.03 190.128 112.392 190.128 111.636ZM199.848 107.273V116H198.826L194.07 109.148H193.985V116H192.928V107.273H193.951L198.723 114.142H198.809V107.273H199.848ZM201.486 108.21V107.273H208.031V108.21H205.287V116H204.23V108.21H201.486ZM209.662 116V107.273H214.929V108.21H210.719V111.159H214.657V112.097H210.719V115.062H214.998V116H209.662ZM223.755 107.273V116H222.732L217.976 109.148H217.891V116H216.834V107.273H217.857L222.63 114.142H222.715V107.273H223.755ZM225.392 108.21V107.273H231.938V108.21H229.193V116H228.136V108.21H225.392ZM239.739 116.119C239.176 116.119 238.675 116.023 238.235 115.83C237.797 115.636 237.449 115.368 237.191 115.024C236.935 114.678 236.796 114.276 236.773 113.818H237.847C237.87 114.099 237.966 114.342 238.137 114.547C238.307 114.749 238.53 114.905 238.806 115.016C239.081 115.126 239.387 115.182 239.722 115.182C240.097 115.182 240.429 115.116 240.719 114.986C241.009 114.855 241.236 114.673 241.401 114.44C241.566 114.207 241.648 113.938 241.648 113.631C241.648 113.31 241.569 113.027 241.409 112.783C241.25 112.536 241.017 112.342 240.711 112.203C240.404 112.064 240.029 111.994 239.586 111.994H238.887V111.057H239.586C239.932 111.057 240.236 110.994 240.498 110.869C240.762 110.744 240.968 110.568 241.115 110.341C241.266 110.114 241.341 109.847 241.341 109.54C241.341 109.244 241.276 108.987 241.145 108.768C241.015 108.55 240.83 108.379 240.591 108.257C240.355 108.135 240.077 108.074 239.756 108.074C239.455 108.074 239.171 108.129 238.904 108.24C238.64 108.348 238.424 108.506 238.256 108.713C238.088 108.918 237.998 109.165 237.983 109.455H236.961C236.978 108.997 237.115 108.597 237.374 108.253C237.632 107.906 237.971 107.636 238.388 107.443C238.809 107.25 239.27 107.153 239.773 107.153C240.313 107.153 240.776 107.263 241.162 107.482C241.549 107.697 241.846 107.983 242.053 108.338C242.26 108.693 242.364 109.077 242.364 109.489C242.364 109.98 242.235 110.399 241.976 110.746C241.721 111.092 241.373 111.332 240.932 111.466V111.534C241.483 111.625 241.914 111.859 242.223 112.237C242.533 112.612 242.688 113.077 242.688 113.631C242.688 114.105 242.559 114.531 242.3 114.909C242.044 115.284 241.695 115.58 241.252 115.795C240.809 116.011 240.304 116.119 239.739 116.119Z" fill="black"/>
<path d="M108.057 162V153.273H113.29V154.21H109.114V157.159H112.898V158.097H109.114V162H108.057ZM122.463 157.636C122.463 158.557 122.297 159.352 121.965 160.023C121.632 160.693 121.176 161.21 120.597 161.574C120.017 161.938 119.355 162.119 118.611 162.119C117.867 162.119 117.205 161.938 116.625 161.574C116.046 161.21 115.59 160.693 115.257 160.023C114.925 159.352 114.759 158.557 114.759 157.636C114.759 156.716 114.925 155.92 115.257 155.25C115.59 154.58 116.046 154.062 116.625 153.699C117.205 153.335 117.867 153.153 118.611 153.153C119.355 153.153 120.017 153.335 120.597 153.699C121.176 154.062 121.632 154.58 121.965 155.25C122.297 155.92 122.463 156.716 122.463 157.636ZM121.441 157.636C121.441 156.881 121.314 156.243 121.061 155.723C120.811 155.203 120.472 154.81 120.043 154.543C119.617 154.276 119.14 154.142 118.611 154.142C118.083 154.142 117.604 154.276 117.175 154.543C116.749 154.81 116.409 155.203 116.157 155.723C115.907 156.243 115.782 156.881 115.782 157.636C115.782 158.392 115.907 159.03 116.157 159.55C116.409 160.07 116.749 160.463 117.175 160.73C117.604 160.997 118.083 161.131 118.611 161.131C119.14 161.131 119.617 160.997 120.043 160.73C120.472 160.463 120.811 160.07 121.061 159.55C121.314 159.03 121.441 158.392 121.441 157.636ZM131.604 157.636C131.604 158.557 131.438 159.352 131.105 160.023C130.773 160.693 130.317 161.21 129.738 161.574C129.158 161.938 128.496 162.119 127.752 162.119C127.007 162.119 126.346 161.938 125.766 161.574C125.186 161.21 124.73 160.693 124.398 160.023C124.066 159.352 123.9 158.557 123.9 157.636C123.9 156.716 124.066 155.92 124.398 155.25C124.73 154.58 125.186 154.062 125.766 153.699C126.346 153.335 127.007 153.153 127.752 153.153C128.496 153.153 129.158 153.335 129.738 153.699C130.317 154.062 130.773 154.58 131.105 155.25C131.438 155.92 131.604 156.716 131.604 157.636ZM130.581 157.636C130.581 156.881 130.455 156.243 130.202 155.723C129.952 155.203 129.613 154.81 129.184 154.543C128.757 154.276 128.28 154.142 127.752 154.142C127.223 154.142 126.745 154.276 126.316 154.543C125.89 154.81 125.55 155.203 125.297 155.723C125.047 156.243 124.922 156.881 124.922 157.636C124.922 158.392 125.047 159.03 125.297 159.55C125.55 160.07 125.89 160.463 126.316 160.73C126.745 160.997 127.223 161.131 127.752 161.131C128.28 161.131 128.757 160.997 129.184 160.73C129.613 160.463 129.952 160.07 130.202 159.55C130.455 159.03 130.581 158.392 130.581 157.636ZM132.54 154.21V153.273H139.086V154.21H136.342V162H135.285V154.21H132.54ZM140.717 162V153.273H145.984V154.21H141.774V157.159H145.711V158.097H141.774V161.062H146.052V162H140.717ZM147.889 162V153.273H150.838C151.52 153.273 152.079 153.389 152.517 153.622C152.954 153.852 153.278 154.169 153.488 154.572C153.699 154.976 153.804 155.435 153.804 155.949C153.804 156.463 153.699 156.919 153.488 157.317C153.278 157.714 152.956 158.027 152.521 158.254C152.086 158.479 151.531 158.591 150.855 158.591H148.468V157.636H150.821C151.287 157.636 151.662 157.568 151.946 157.432C152.233 157.295 152.44 157.102 152.568 156.852C152.699 156.599 152.764 156.298 152.764 155.949C152.764 155.599 152.699 155.294 152.568 155.033C152.437 154.771 152.228 154.57 151.941 154.428C151.654 154.283 151.275 154.21 150.804 154.21H148.946V162H147.889ZM151.997 158.08L154.145 162H152.917L150.804 158.08H151.997Z" fill="#FAFAFA"/>
<rect x="291" y="5" width="141" height="201" fill="#D9D9D9"/>
<rect x="291" y="5" width="141" height="72" fill="#FFCD29"/>
<path d="M321.057 44V35.2727H322.114V39.1591H326.767V35.2727H327.824V44H326.767V40.0966H322.114V44H321.057ZM329.94 44V35.2727H335.207V36.2102H330.996V39.1591H334.934V40.0966H330.996V43.0625H335.275V44H329.94ZM337.112 44V35.2727H340.06C340.742 35.2727 341.302 35.3892 341.739 35.6222C342.177 35.8523 342.501 36.169 342.711 36.5724C342.921 36.9759 343.026 37.4347 343.026 37.9489C343.026 38.4631 342.921 38.919 342.711 39.3168C342.501 39.7145 342.178 40.027 341.744 40.2543C341.309 40.4787 340.754 40.5909 340.077 40.5909H337.691V39.6364H340.043C340.509 39.6364 340.884 39.5682 341.168 39.4318C341.455 39.2955 341.663 39.1023 341.79 38.8523C341.921 38.5994 341.987 38.2983 341.987 37.9489C341.987 37.5994 341.921 37.294 341.79 37.0327C341.66 36.7713 341.451 36.5696 341.164 36.4276C340.877 36.2827 340.498 36.2102 340.026 36.2102H338.168V44H337.112ZM341.219 40.0795L343.367 44H342.14L340.026 40.0795H341.219ZM352.151 39.6364C352.151 40.5568 351.985 41.3523 351.652 42.0227C351.32 42.6932 350.864 43.2102 350.284 43.5739C349.705 43.9375 349.043 44.1193 348.299 44.1193C347.554 44.1193 346.892 43.9375 346.313 43.5739C345.733 43.2102 345.277 42.6932 344.945 42.0227C344.613 41.3523 344.446 40.5568 344.446 39.6364C344.446 38.7159 344.613 37.9205 344.945 37.25C345.277 36.5795 345.733 36.0625 346.313 35.6989C346.892 35.3352 347.554 35.1534 348.299 35.1534C349.043 35.1534 349.705 35.3352 350.284 35.6989C350.864 36.0625 351.32 36.5795 351.652 37.25C351.985 37.9205 352.151 38.7159 352.151 39.6364ZM351.128 39.6364C351.128 38.8807 351.002 38.2429 350.749 37.723C350.499 37.2031 350.159 36.8097 349.73 36.5426C349.304 36.2756 348.827 36.142 348.299 36.142C347.77 36.142 347.292 36.2756 346.863 36.5426C346.436 36.8097 346.097 37.2031 345.844 37.723C345.594 38.2429 345.469 38.8807 345.469 39.6364C345.469 40.392 345.594 41.0298 345.844 41.5497C346.097 42.0696 346.436 42.4631 346.863 42.7301C347.292 42.9972 347.77 43.1307 348.299 43.1307C348.827 43.1307 349.304 42.9972 349.73 42.7301C350.159 42.4631 350.499 42.0696 350.749 41.5497C351.002 41.0298 351.128 40.392 351.128 39.6364ZM358.36 35.2727V44H357.303V35.2727H358.36ZM360.479 35.2727H361.74L364.706 42.517H364.808L367.774 35.2727H369.036V44H368.047V37.3693H367.962L365.234 44H364.28L361.553 37.3693H361.467V44H360.479V35.2727ZM371.512 44H370.404L373.609 35.2727H374.7L377.904 44H376.797L374.189 36.6534H374.12L371.512 44ZM371.922 40.5909H376.387V41.5284H371.922V40.5909ZM384.82 38C384.726 37.7131 384.602 37.456 384.449 37.2287C384.298 36.9986 384.118 36.8026 383.908 36.6406C383.7 36.4787 383.464 36.3551 383.2 36.2699C382.936 36.1847 382.646 36.142 382.331 36.142C381.814 36.142 381.344 36.2756 380.92 36.5426C380.497 36.8097 380.161 37.2031 379.911 37.723C379.661 38.2429 379.536 38.8807 379.536 39.6364C379.536 40.392 379.662 41.0298 379.915 41.5497C380.168 42.0696 380.51 42.4631 380.942 42.7301C381.374 42.9972 381.859 43.1307 382.399 43.1307C382.899 43.1307 383.339 43.0241 383.72 42.8111C384.104 42.5952 384.402 42.2912 384.615 41.8991C384.831 41.5043 384.939 41.0398 384.939 40.5057L385.263 40.5739H382.638V39.6364H385.962V40.5739C385.962 41.2926 385.808 41.9176 385.501 42.4489C385.197 42.9801 384.777 43.392 384.24 43.6847C383.706 43.9744 383.092 44.1193 382.399 44.1193C381.626 44.1193 380.947 43.9375 380.362 43.5739C379.78 43.2102 379.325 42.6932 378.999 42.0227C378.675 41.3523 378.513 40.5568 378.513 39.6364C378.513 38.946 378.605 38.3253 378.79 37.7741C378.977 37.2202 379.241 36.7486 379.582 36.3594C379.923 35.9702 380.327 35.6719 380.793 35.4645C381.259 35.2571 381.771 35.1534 382.331 35.1534C382.791 35.1534 383.22 35.223 383.618 35.3622C384.018 35.4986 384.375 35.6932 384.688 35.946C385.003 36.196 385.266 36.4957 385.476 36.8452C385.686 37.1918 385.831 37.5767 385.911 38H384.82ZM387.772 44V35.2727H393.039V36.2102H388.828V39.1591H392.766V40.0966H388.828V43.0625H393.107V44H387.772ZM401.864 35.2727V44H400.841L396.086 37.1477H396V44H394.944V35.2727H395.966L400.739 42.142H400.824V35.2727H401.864Z" fill="black"/>
<rect x="291" y="77" width="141" height="20" fill="#D37100"/>
<path d="M335.977 83.2727V92H334.955L330.199 85.1477H330.114V92H329.057V83.2727H330.08L334.852 90.142H334.938V83.2727H335.977ZM338.45 92H337.342L340.547 83.2727H341.637L344.842 92H343.734L341.126 84.6534H341.058L338.45 92ZM338.859 88.5909H343.325V89.5284H338.859V88.5909ZM345.739 83.2727L348.33 90.6193H348.432L351.023 83.2727H352.131L348.926 92H347.836L344.631 83.2727H345.739ZM356.865 83.2727H358.127L361.093 90.517H361.195L364.161 83.2727H365.422V92H364.434V85.3693H364.348L361.621 92H360.667L357.939 85.3693H357.854V92H356.865V83.2727ZM367.541 92V83.2727H372.808V84.2102H368.598V87.1591H372.536V88.0966H368.598V91.0625H372.876V92H367.541ZM381.634 83.2727V92H380.611L375.855 85.1477H375.77V92H374.713V83.2727H375.736L380.509 90.142H380.594V83.2727H381.634ZM389.475 83.2727H390.532V89.0511C390.532 89.6477 390.392 90.1804 390.11 90.6491C389.832 91.1151 389.439 91.483 388.93 91.7528C388.422 92.0199 387.825 92.1534 387.14 92.1534C386.456 92.1534 385.859 92.0199 385.35 91.7528C384.842 91.483 384.447 91.1151 384.166 90.6491C383.887 90.1804 383.748 89.6477 383.748 89.0511V83.2727H384.805V88.9659C384.805 89.392 384.899 89.7713 385.086 90.1037C385.274 90.4332 385.541 90.6932 385.887 90.8835C386.237 91.071 386.654 91.1648 387.14 91.1648C387.626 91.1648 388.044 91.071 388.393 90.8835C388.743 90.6932 389.01 90.4332 389.194 90.1037C389.382 89.7713 389.475 89.392 389.475 88.9659V83.2727Z" fill="black"/>
<path d="M394.881 17V9.72727H397.423C397.93 9.72727 398.348 9.81487 398.677 9.99006C399.006 10.1629 399.251 10.3961 399.412 10.6896C399.573 10.9808 399.653 11.304 399.653 11.6591C399.653 11.9716 399.598 12.2296 399.487 12.4332C399.378 12.6368 399.233 12.7978 399.053 12.9162C398.876 13.0346 398.683 13.1222 398.474 13.179V13.25C398.697 13.2642 398.921 13.3423 399.146 13.4844C399.371 13.6264 399.559 13.83 399.71 14.0952C399.862 14.3603 399.938 14.6847 399.938 15.0682C399.938 15.4328 399.855 15.7607 399.689 16.0518C399.523 16.343 399.262 16.5739 398.904 16.7443C398.547 16.9148 398.081 17 397.509 17H394.881ZM395.761 16.2188H397.509C398.084 16.2188 398.492 16.1075 398.734 15.8849C398.978 15.66 399.099 15.3878 399.099 15.0682C399.099 14.822 399.037 14.5947 398.911 14.3864C398.786 14.1757 398.607 14.0076 398.375 13.8821C398.143 13.7543 397.868 13.6903 397.551 13.6903H395.761V16.2188ZM395.761 12.9233H397.395C397.66 12.9233 397.899 12.8712 398.112 12.767C398.328 12.6629 398.498 12.5161 398.624 12.3267C398.751 12.1373 398.815 11.9148 398.815 11.6591C398.815 11.3395 398.704 11.0684 398.482 10.8459C398.259 10.621 397.906 10.5085 397.423 10.5085H395.761V12.9233ZM407.521 13.3636C407.521 14.1307 407.382 14.7936 407.105 15.3523C406.828 15.911 406.449 16.3419 405.966 16.6449C405.483 16.9479 404.931 17.0994 404.311 17.0994C403.69 17.0994 403.139 16.9479 402.656 16.6449C402.173 16.3419 401.793 15.911 401.516 15.3523C401.239 14.7936 401.1 14.1307 401.1 13.3636C401.1 12.5966 401.239 11.9337 401.516 11.375C401.793 10.8163 402.173 10.3854 402.656 10.0824C403.139 9.77936 403.69 9.62784 404.311 9.62784C404.931 9.62784 405.483 9.77936 405.966 10.0824C406.449 10.3854 406.828 10.8163 407.105 11.375C407.382 11.9337 407.521 12.5966 407.521 13.3636ZM406.669 13.3636C406.669 12.7339 406.563 12.2024 406.353 11.7692C406.144 11.3359 405.861 11.008 405.504 10.7855C405.149 10.563 404.751 10.4517 404.311 10.4517C403.87 10.4517 403.471 10.563 403.114 10.7855C402.759 11.008 402.476 11.3359 402.265 11.7692C402.057 12.2024 401.953 12.7339 401.953 13.3636C401.953 13.9934 402.057 14.5249 402.265 14.9581C402.476 15.3913 402.759 15.7192 403.114 15.9418C403.471 16.1643 403.87 16.2756 404.311 16.2756C404.751 16.2756 405.149 16.1643 405.504 15.9418C405.861 15.7192 406.144 15.3913 406.353 14.9581C406.563 14.5249 406.669 13.9934 406.669 13.3636ZM408.301 10.5085V9.72727H413.756V10.5085H411.469V17H410.588V10.5085H408.301ZM420.949 13.3636C420.949 14.1307 420.81 14.7936 420.533 15.3523C420.256 15.911 419.876 16.3419 419.393 16.6449C418.91 16.9479 418.359 17.0994 417.738 17.0994C417.118 17.0994 416.567 16.9479 416.084 16.6449C415.601 16.3419 415.221 15.911 414.944 15.3523C414.667 14.7936 414.528 14.1307 414.528 13.3636C414.528 12.5966 414.667 11.9337 414.944 11.375C415.221 10.8163 415.601 10.3854 416.084 10.0824C416.567 9.77936 417.118 9.62784 417.738 9.62784C418.359 9.62784 418.91 9.77936 419.393 10.0824C419.876 10.3854 420.256 10.8163 420.533 11.375C420.81 11.9337 420.949 12.5966 420.949 13.3636ZM420.096 13.3636C420.096 12.7339 419.991 12.2024 419.78 11.7692C419.572 11.3359 419.289 11.008 418.932 10.7855C418.577 10.563 418.179 10.4517 417.738 10.4517C417.298 10.4517 416.899 10.563 416.542 10.7855C416.187 11.008 415.904 11.3359 415.693 11.7692C415.485 12.2024 415.381 12.7339 415.381 13.3636C415.381 13.9934 415.485 14.5249 415.693 14.9581C415.904 15.3913 416.187 15.7192 416.542 15.9418C416.899 16.1643 417.298 16.2756 417.738 16.2756C418.179 16.2756 418.577 16.1643 418.932 15.9418C419.289 15.7192 419.572 15.3913 419.78 14.9581C419.991 14.5249 420.096 13.9934 420.096 13.3636ZM428.197 9.72727V17H427.344L423.381 11.2898H423.31V17H422.43V9.72727H423.282L427.259 15.4517H427.33V9.72727H428.197Z" fill="black"/>
<path d="M293.881 17V9.72727H296.423C296.93 9.72727 297.348 9.81487 297.677 9.99006C298.006 10.1629 298.251 10.3961 298.412 10.6896C298.573 10.9808 298.653 11.304 298.653 11.6591C298.653 11.9716 298.598 12.2296 298.487 12.4332C298.378 12.6368 298.233 12.7978 298.053 12.9162C297.876 13.0346 297.683 13.1222 297.474 13.179V13.25C297.697 13.2642 297.921 13.3423 298.146 13.4844C298.371 13.6264 298.559 13.83 298.71 14.0952C298.862 14.3603 298.938 14.6847 298.938 15.0682C298.938 15.4328 298.855 15.7607 298.689 16.0518C298.523 16.343 298.262 16.5739 297.904 16.7443C297.547 16.9148 297.081 17 296.509 17H293.881ZM294.761 16.2188H296.509C297.084 16.2188 297.492 16.1075 297.734 15.8849C297.978 15.66 298.099 15.3878 298.099 15.0682C298.099 14.822 298.037 14.5947 297.911 14.3864C297.786 14.1757 297.607 14.0076 297.375 13.8821C297.143 13.7543 296.868 13.6903 296.551 13.6903H294.761V16.2188ZM294.761 12.9233H296.395C296.66 12.9233 296.899 12.8712 297.112 12.767C297.328 12.6629 297.498 12.5161 297.624 12.3267C297.751 12.1373 297.815 11.9148 297.815 11.6591C297.815 11.3395 297.704 11.0684 297.482 10.8459C297.259 10.621 296.906 10.5085 296.423 10.5085H294.761V12.9233ZM306.521 13.3636C306.521 14.1307 306.382 14.7936 306.105 15.3523C305.828 15.911 305.449 16.3419 304.966 16.6449C304.483 16.9479 303.931 17.0994 303.311 17.0994C302.69 17.0994 302.139 16.9479 301.656 16.6449C301.173 16.3419 300.793 15.911 300.516 15.3523C300.239 14.7936 300.1 14.1307 300.1 13.3636C300.1 12.5966 300.239 11.9337 300.516 11.375C300.793 10.8163 301.173 10.3854 301.656 10.0824C302.139 9.77936 302.69 9.62784 303.311 9.62784C303.931 9.62784 304.483 9.77936 304.966 10.0824C305.449 10.3854 305.828 10.8163 306.105 11.375C306.382 11.9337 306.521 12.5966 306.521 13.3636ZM305.669 13.3636C305.669 12.7339 305.563 12.2024 305.353 11.7692C305.144 11.3359 304.861 11.008 304.504 10.7855C304.149 10.563 303.751 10.4517 303.311 10.4517C302.87 10.4517 302.471 10.563 302.114 10.7855C301.759 11.008 301.476 11.3359 301.265 11.7692C301.057 12.2024 300.953 12.7339 300.953 13.3636C300.953 13.9934 301.057 14.5249 301.265 14.9581C301.476 15.3913 301.759 15.7192 302.114 15.9418C302.471 16.1643 302.87 16.2756 303.311 16.2756C303.751 16.2756 304.149 16.1643 304.504 15.9418C304.861 15.7192 305.144 15.3913 305.353 14.9581C305.563 14.5249 305.669 13.9934 305.669 13.3636ZM307.301 10.5085V9.72727H312.756V10.5085H310.469V17H309.588V10.5085H307.301ZM319.949 13.3636C319.949 14.1307 319.81 14.7936 319.533 15.3523C319.256 15.911 318.876 16.3419 318.393 16.6449C317.91 16.9479 317.359 17.0994 316.738 17.0994C316.118 17.0994 315.567 16.9479 315.084 16.6449C314.601 16.3419 314.221 15.911 313.944 15.3523C313.667 14.7936 313.528 14.1307 313.528 13.3636C313.528 12.5966 313.667 11.9337 313.944 11.375C314.221 10.8163 314.601 10.3854 315.084 10.0824C315.567 9.77936 316.118 9.62784 316.738 9.62784C317.359 9.62784 317.91 9.77936 318.393 10.0824C318.876 10.3854 319.256 10.8163 319.533 11.375C319.81 11.9337 319.949 12.5966 319.949 13.3636ZM319.096 13.3636C319.096 12.7339 318.991 12.2024 318.78 11.7692C318.572 11.3359 318.289 11.008 317.932 10.7855C317.577 10.563 317.179 10.4517 316.738 10.4517C316.298 10.4517 315.899 10.563 315.542 10.7855C315.187 11.008 314.904 11.3359 314.693 11.7692C314.485 12.2024 314.381 12.7339 314.381 13.3636C314.381 13.9934 314.485 14.5249 314.693 14.9581C314.904 15.3913 315.187 15.7192 315.542 15.9418C315.899 16.1643 316.298 16.2756 316.738 16.2756C317.179 16.2756 317.577 16.1643 317.932 15.9418C318.289 15.7192 318.572 15.3913 318.78 14.9581C318.991 14.5249 319.096 13.9934 319.096 13.3636ZM327.197 9.72727V17H326.344L322.381 11.2898H322.31V17H321.43V9.72727H322.282L326.259 15.4517H326.33V9.72727H327.197Z" fill="black"/>
<path d="M322.793 61V52.2727H323.85V56.1591H328.503V52.2727H329.56V61H328.503V57.0966H323.85V61H322.793ZM334.591 52.2727V61H333.534V53.3807H333.483L331.352 54.7955V53.7216L333.534 52.2727H334.591ZM342.214 61L339.828 52.2727H340.902L342.726 59.3807H342.811L344.669 52.2727H345.862L347.72 59.3807H347.805L349.629 52.2727H350.703L348.317 61H347.226L345.3 54.0455H345.231L343.305 61H342.214ZM352.02 61V52.2727H357.287V53.2102H353.077V56.1591H357.014V57.0966H353.077V60.0625H357.355V61H352.02ZM359.192 61V52.2727H360.248V60.0625H364.305V61H359.192ZM372.624 55H371.568C371.505 54.696 371.396 54.429 371.24 54.1989C371.086 53.9688 370.899 53.7756 370.677 53.6193C370.458 53.4602 370.215 53.3409 369.948 53.2614C369.681 53.1818 369.403 53.142 369.113 53.142C368.585 53.142 368.106 53.2756 367.677 53.5426C367.251 53.8097 366.911 54.2031 366.659 54.723C366.409 55.2429 366.284 55.8807 366.284 56.6364C366.284 57.392 366.409 58.0298 366.659 58.5497C366.911 59.0696 367.251 59.4631 367.677 59.7301C368.106 59.9972 368.585 60.1307 369.113 60.1307C369.403 60.1307 369.681 60.0909 369.948 60.0114C370.215 59.9318 370.458 59.8139 370.677 59.6577C370.899 59.4986 371.086 59.304 371.24 59.0739C371.396 58.8409 371.505 58.5739 371.568 58.2727H372.624C372.545 58.7187 372.4 59.1179 372.19 59.4702C371.98 59.8224 371.718 60.1222 371.406 60.3693C371.093 60.6136 370.742 60.7997 370.353 60.9276C369.967 61.0554 369.553 61.1193 369.113 61.1193C368.369 61.1193 367.707 60.9375 367.127 60.5739C366.548 60.2102 366.092 59.6932 365.759 59.0227C365.427 58.3523 365.261 57.5568 365.261 56.6364C365.261 55.7159 365.427 54.9205 365.759 54.25C366.092 53.5795 366.548 53.0625 367.127 52.6989C367.707 52.3352 368.369 52.1534 369.113 52.1534C369.553 52.1534 369.967 52.2173 370.353 52.3452C370.742 52.473 371.093 52.6605 371.406 52.9077C371.718 53.152 371.98 53.4503 372.19 53.8026C372.4 54.152 372.545 54.5511 372.624 55ZM381.696 56.6364C381.696 57.5568 381.53 58.3523 381.197 59.0227C380.865 59.6932 380.409 60.2102 379.829 60.5739C379.25 60.9375 378.588 61.1193 377.844 61.1193C377.099 61.1193 376.437 60.9375 375.858 60.5739C375.278 60.2102 374.822 59.6932 374.49 59.0227C374.157 58.3523 373.991 57.5568 373.991 56.6364C373.991 55.7159 374.157 54.9205 374.49 54.25C374.822 53.5795 375.278 53.0625 375.858 52.6989C376.437 52.3352 377.099 52.1534 377.844 52.1534C378.588 52.1534 379.25 52.3352 379.829 52.6989C380.409 53.0625 380.865 53.5795 381.197 54.25C381.53 54.9205 381.696 55.7159 381.696 56.6364ZM380.673 56.6364C380.673 55.8807 380.547 55.2429 380.294 54.723C380.044 54.2031 379.704 53.8097 379.275 53.5426C378.849 53.2756 378.372 53.142 377.844 53.142C377.315 53.142 376.836 53.2756 376.407 53.5426C375.981 53.8097 375.642 54.2031 375.389 54.723C375.139 55.2429 375.014 55.8807 375.014 56.6364C375.014 57.392 375.139 58.0298 375.389 58.5497C375.642 59.0696 375.981 59.4631 376.407 59.7301C376.836 59.9972 377.315 60.1307 377.844 60.1307C378.372 60.1307 378.849 59.9972 379.275 59.7301C379.704 59.4631 380.044 59.0696 380.294 58.5497C380.547 58.0298 380.673 57.392 380.673 56.6364ZM383.473 52.2727H384.734L387.7 59.517H387.802L390.768 52.2727H392.03V61H391.041V54.3693H390.956L388.229 61H387.274L384.547 54.3693H384.461V61H383.473V52.2727ZM394.149 61V52.2727H399.416V53.2102H395.205V56.1591H399.143V57.0966H395.205V60.0625H399.484V61H394.149Z" fill="black"/>
<rect x="291" y="97" width="141" height="26" fill="#4D80DF"/>
<rect x="291" y="184" width="141" height="27" fill="#13326B"/>
<rect x="291" y="154" width="141" height="27" fill="#4D80DF"/>
<rect x="291" y="126" width="141" height="26" fill="#4D80DF"/>
<path d="M338.303 203V194.273H343.536V195.21H339.36V198.159H343.144V199.097H339.36V203H338.303ZM352.71 198.636C352.71 199.557 352.543 200.352 352.211 201.023C351.879 201.693 351.423 202.21 350.843 202.574C350.263 202.938 349.602 203.119 348.857 203.119C348.113 203.119 347.451 202.938 346.871 202.574C346.292 202.21 345.836 201.693 345.504 201.023C345.171 200.352 345.005 199.557 345.005 198.636C345.005 197.716 345.171 196.92 345.504 196.25C345.836 195.58 346.292 195.062 346.871 194.699C347.451 194.335 348.113 194.153 348.857 194.153C349.602 194.153 350.263 194.335 350.843 194.699C351.423 195.062 351.879 195.58 352.211 196.25C352.543 196.92 352.71 197.716 352.71 198.636ZM351.687 198.636C351.687 197.881 351.56 197.243 351.308 196.723C351.058 196.203 350.718 195.81 350.289 195.543C349.863 195.276 349.386 195.142 348.857 195.142C348.329 195.142 347.85 195.276 347.421 195.543C346.995 195.81 346.656 196.203 346.403 196.723C346.153 197.243 346.028 197.881 346.028 198.636C346.028 199.392 346.153 200.03 346.403 200.55C346.656 201.07 346.995 201.463 347.421 201.73C347.85 201.997 348.329 202.131 348.857 202.131C349.386 202.131 349.863 201.997 350.289 201.73C350.718 201.463 351.058 201.07 351.308 200.55C351.56 200.03 351.687 199.392 351.687 198.636ZM361.85 198.636C361.85 199.557 361.684 200.352 361.352 201.023C361.019 201.693 360.563 202.21 359.984 202.574C359.404 202.938 358.742 203.119 357.998 203.119C357.254 203.119 356.592 202.938 356.012 202.574C355.433 202.21 354.977 201.693 354.644 201.023C354.312 200.352 354.146 199.557 354.146 198.636C354.146 197.716 354.312 196.92 354.644 196.25C354.977 195.58 355.433 195.062 356.012 194.699C356.592 194.335 357.254 194.153 357.998 194.153C358.742 194.153 359.404 194.335 359.984 194.699C360.563 195.062 361.019 195.58 361.352 196.25C361.684 196.92 361.85 197.716 361.85 198.636ZM360.827 198.636C360.827 197.881 360.701 197.243 360.448 196.723C360.198 196.203 359.859 195.81 359.43 195.543C359.004 195.276 358.526 195.142 357.998 195.142C357.469 195.142 356.991 195.276 356.562 195.543C356.136 195.81 355.796 196.203 355.543 196.723C355.293 197.243 355.168 197.881 355.168 198.636C355.168 199.392 355.293 200.03 355.543 200.55C355.796 201.07 356.136 201.463 356.562 201.73C356.991 201.997 357.469 202.131 357.998 202.131C358.526 202.131 359.004 201.997 359.43 201.73C359.859 201.463 360.198 201.07 360.448 200.55C360.701 200.03 360.827 199.392 360.827 198.636ZM362.787 195.21V194.273H369.332V195.21H366.588V203H365.531V195.21H362.787ZM370.963 203V194.273H376.23V195.21H372.02V198.159H375.957V199.097H372.02V202.062H376.298V203H370.963ZM378.135 203V194.273H381.084C381.766 194.273 382.325 194.389 382.763 194.622C383.2 194.852 383.524 195.169 383.734 195.572C383.945 195.976 384.05 196.435 384.05 196.949C384.05 197.463 383.945 197.919 383.734 198.317C383.524 198.714 383.202 199.027 382.767 199.254C382.332 199.479 381.777 199.591 381.101 199.591H378.714V198.636H381.067C381.533 198.636 381.908 198.568 382.192 198.432C382.479 198.295 382.686 198.102 382.814 197.852C382.945 197.599 383.01 197.298 383.01 196.949C383.01 196.599 382.945 196.294 382.814 196.033C382.683 195.771 382.474 195.57 382.188 195.428C381.901 195.283 381.521 195.21 381.05 195.21H379.192V203H378.135ZM382.243 199.08L384.391 203H383.163L381.05 199.08H382.243Z" fill="white"/>
<path d="M336.503 164H335.447C335.384 163.696 335.275 163.429 335.118 163.199C334.965 162.969 334.778 162.776 334.556 162.619C334.337 162.46 334.094 162.341 333.827 162.261C333.56 162.182 333.282 162.142 332.992 162.142C332.464 162.142 331.985 162.276 331.556 162.543C331.13 162.81 330.79 163.203 330.537 163.723C330.287 164.243 330.162 164.881 330.162 165.636C330.162 166.392 330.287 167.03 330.537 167.55C330.79 168.07 331.13 168.463 331.556 168.73C331.985 168.997 332.464 169.131 332.992 169.131C333.282 169.131 333.56 169.091 333.827 169.011C334.094 168.932 334.337 168.814 334.556 168.658C334.778 168.499 334.965 168.304 335.118 168.074C335.275 167.841 335.384 167.574 335.447 167.273H336.503C336.424 167.719 336.279 168.118 336.069 168.47C335.858 168.822 335.597 169.122 335.285 169.369C334.972 169.614 334.621 169.8 334.232 169.928C333.846 170.055 333.432 170.119 332.992 170.119C332.248 170.119 331.586 169.938 331.006 169.574C330.427 169.21 329.971 168.693 329.638 168.023C329.306 167.352 329.14 166.557 329.14 165.636C329.14 164.716 329.306 163.92 329.638 163.25C329.971 162.58 330.427 162.062 331.006 161.699C331.586 161.335 332.248 161.153 332.992 161.153C333.432 161.153 333.846 161.217 334.232 161.345C334.621 161.473 334.972 161.661 335.285 161.908C335.597 162.152 335.858 162.45 336.069 162.803C336.279 163.152 336.424 163.551 336.503 164ZM345.575 165.636C345.575 166.557 345.409 167.352 345.076 168.023C344.744 168.693 344.288 169.21 343.708 169.574C343.129 169.938 342.467 170.119 341.722 170.119C340.978 170.119 340.316 169.938 339.737 169.574C339.157 169.21 338.701 168.693 338.369 168.023C338.036 167.352 337.87 166.557 337.87 165.636C337.87 164.716 338.036 163.92 338.369 163.25C338.701 162.58 339.157 162.062 339.737 161.699C340.316 161.335 340.978 161.153 341.722 161.153C342.467 161.153 343.129 161.335 343.708 161.699C344.288 162.062 344.744 162.58 345.076 163.25C345.409 163.92 345.575 164.716 345.575 165.636ZM344.552 165.636C344.552 164.881 344.426 164.243 344.173 163.723C343.923 163.203 343.583 162.81 343.154 162.543C342.728 162.276 342.251 162.142 341.722 162.142C341.194 162.142 340.715 162.276 340.286 162.543C339.86 162.81 339.521 163.203 339.268 163.723C339.018 164.243 338.893 164.881 338.893 165.636C338.893 166.392 339.018 167.03 339.268 167.55C339.521 168.07 339.86 168.463 340.286 168.73C340.715 168.997 341.194 169.131 341.722 169.131C342.251 169.131 342.728 168.997 343.154 168.73C343.583 168.463 343.923 168.07 344.173 167.55C344.426 167.03 344.552 166.392 344.552 165.636ZM354.272 161.273V170H353.249L348.494 163.148H348.409V170H347.352V161.273H348.374L353.147 168.142H353.232V161.273H354.272ZM355.91 162.21V161.273H362.455V162.21H359.711V170H358.654V162.21H355.91ZM364.086 170V161.273H369.353V162.21H365.143V165.159H369.08V166.097H365.143V169.062H369.421V170H364.086ZM378.178 161.273V170H377.156L372.4 163.148H372.315V170H371.258V161.273H372.281L377.053 168.142H377.139V161.273H378.178ZM379.816 162.21V161.273H386.361V162.21H383.617V170H382.56V162.21H379.816ZM390.788 170.119C390.225 170.119 389.724 170.023 389.284 169.83C388.846 169.636 388.498 169.368 388.24 169.024C387.984 168.678 387.845 168.276 387.822 167.818H388.896C388.919 168.099 389.015 168.342 389.186 168.547C389.356 168.749 389.579 168.905 389.855 169.016C390.13 169.126 390.436 169.182 390.771 169.182C391.146 169.182 391.478 169.116 391.768 168.986C392.058 168.855 392.285 168.673 392.45 168.44C392.615 168.207 392.697 167.938 392.697 167.631C392.697 167.31 392.617 167.027 392.458 166.783C392.299 166.536 392.066 166.342 391.759 166.203C391.453 166.064 391.078 165.994 390.634 165.994H389.936V165.057H390.634C390.981 165.057 391.285 164.994 391.546 164.869C391.811 164.744 392.017 164.568 392.164 164.341C392.315 164.114 392.39 163.847 392.39 163.54C392.39 163.244 392.325 162.987 392.194 162.768C392.063 162.55 391.879 162.379 391.64 162.257C391.404 162.135 391.126 162.074 390.805 162.074C390.504 162.074 390.22 162.129 389.953 162.24C389.688 162.348 389.472 162.506 389.305 162.713C389.137 162.918 389.046 163.165 389.032 163.455H388.009C388.026 162.997 388.164 162.597 388.423 162.253C388.681 161.906 389.019 161.636 389.437 161.443C389.857 161.25 390.319 161.153 390.822 161.153C391.362 161.153 391.825 161.263 392.211 161.482C392.597 161.697 392.894 161.983 393.102 162.338C393.309 162.693 393.413 163.077 393.413 163.489C393.413 163.98 393.284 164.399 393.025 164.746C392.769 165.092 392.421 165.332 391.981 165.466V165.534C392.532 165.625 392.963 165.859 393.272 166.237C393.582 166.612 393.737 167.077 393.737 167.631C393.737 168.105 393.607 168.531 393.349 168.909C393.093 169.284 392.744 169.58 392.301 169.795C391.857 170.011 391.353 170.119 390.788 170.119Z" fill="black"/>
<path d="M334.847 108H333.79C333.728 107.696 333.618 107.429 333.462 107.199C333.309 106.969 333.121 106.776 332.9 106.619C332.681 106.46 332.438 106.341 332.171 106.261C331.904 106.182 331.626 106.142 331.336 106.142C330.807 106.142 330.329 106.276 329.9 106.543C329.474 106.81 329.134 107.203 328.881 107.723C328.631 108.243 328.506 108.881 328.506 109.636C328.506 110.392 328.631 111.03 328.881 111.55C329.134 112.07 329.474 112.463 329.9 112.73C330.329 112.997 330.807 113.131 331.336 113.131C331.626 113.131 331.904 113.091 332.171 113.011C332.438 112.932 332.681 112.814 332.9 112.658C333.121 112.499 333.309 112.304 333.462 112.074C333.618 111.841 333.728 111.574 333.79 111.273H334.847C334.768 111.719 334.623 112.118 334.412 112.47C334.202 112.822 333.941 113.122 333.628 113.369C333.316 113.614 332.965 113.8 332.576 113.928C332.189 114.055 331.776 114.119 331.336 114.119C330.591 114.119 329.93 113.938 329.35 113.574C328.77 113.21 328.314 112.693 327.982 112.023C327.65 111.352 327.483 110.557 327.483 109.636C327.483 108.716 327.65 107.92 327.982 107.25C328.314 106.58 328.77 106.062 329.35 105.699C329.93 105.335 330.591 105.153 331.336 105.153C331.776 105.153 332.189 105.217 332.576 105.345C332.965 105.473 333.316 105.661 333.628 105.908C333.941 106.152 334.202 106.45 334.412 106.803C334.623 107.152 334.768 107.551 334.847 108ZM343.919 109.636C343.919 110.557 343.752 111.352 343.42 112.023C343.088 112.693 342.632 113.21 342.052 113.574C341.472 113.938 340.811 114.119 340.066 114.119C339.322 114.119 338.66 113.938 338.08 113.574C337.501 113.21 337.045 112.693 336.713 112.023C336.38 111.352 336.214 110.557 336.214 109.636C336.214 108.716 336.38 107.92 336.713 107.25C337.045 106.58 337.501 106.062 338.08 105.699C338.66 105.335 339.322 105.153 340.066 105.153C340.811 105.153 341.472 105.335 342.052 105.699C342.632 106.062 343.088 106.58 343.42 107.25C343.752 107.92 343.919 108.716 343.919 109.636ZM342.896 109.636C342.896 108.881 342.769 108.243 342.517 107.723C342.267 107.203 341.927 106.81 341.498 106.543C341.072 106.276 340.595 106.142 340.066 106.142C339.538 106.142 339.059 106.276 338.63 106.543C338.204 106.81 337.865 107.203 337.612 107.723C337.362 108.243 337.237 108.881 337.237 109.636C337.237 110.392 337.362 111.03 337.612 111.55C337.865 112.07 338.204 112.463 338.63 112.73C339.059 112.997 339.538 113.131 340.066 113.131C340.595 113.131 341.072 112.997 341.498 112.73C341.927 112.463 342.267 112.07 342.517 111.55C342.769 111.03 342.896 110.392 342.896 109.636ZM352.616 105.273V114H351.593L346.838 107.148H346.752V114H345.695V105.273H346.718L351.491 112.142H351.576V105.273H352.616ZM354.253 106.21V105.273H360.799V106.21H358.055V114H356.998V106.21H354.253ZM362.43 114V105.273H367.697V106.21H363.487V109.159H367.424V110.097H363.487V113.062H367.765V114H362.43ZM376.522 105.273V114H375.499L370.744 107.148H370.659V114H369.602V105.273H370.624L375.397 112.142H375.482V105.273H376.522ZM378.16 106.21V105.273H384.705V106.21H381.961V114H380.904V106.21H378.16ZM392.626 105.273V114H391.569V106.381H391.518L389.387 107.795V106.722L391.569 105.273H392.626Z" fill="black"/>
<path d="M335.691 137H334.634C334.572 136.696 334.462 136.429 334.306 136.199C334.153 135.969 333.965 135.776 333.743 135.619C333.525 135.46 333.282 135.341 333.015 135.261C332.748 135.182 332.469 135.142 332.18 135.142C331.651 135.142 331.172 135.276 330.743 135.543C330.317 135.81 329.978 136.203 329.725 136.723C329.475 137.243 329.35 137.881 329.35 138.636C329.35 139.392 329.475 140.03 329.725 140.55C329.978 141.07 330.317 141.463 330.743 141.73C331.172 141.997 331.651 142.131 332.18 142.131C332.469 142.131 332.748 142.091 333.015 142.011C333.282 141.932 333.525 141.814 333.743 141.658C333.965 141.499 334.153 141.304 334.306 141.074C334.462 140.841 334.572 140.574 334.634 140.273H335.691C335.611 140.719 335.466 141.118 335.256 141.47C335.046 141.822 334.785 142.122 334.472 142.369C334.16 142.614 333.809 142.8 333.42 142.928C333.033 143.055 332.62 143.119 332.18 143.119C331.435 143.119 330.773 142.938 330.194 142.574C329.614 142.21 329.158 141.693 328.826 141.023C328.493 140.352 328.327 139.557 328.327 138.636C328.327 137.716 328.493 136.92 328.826 136.25C329.158 135.58 329.614 135.062 330.194 134.699C330.773 134.335 331.435 134.153 332.18 134.153C332.62 134.153 333.033 134.217 333.42 134.345C333.809 134.473 334.16 134.661 334.472 134.908C334.785 135.152 335.046 135.45 335.256 135.803C335.466 136.152 335.611 136.551 335.691 137ZM344.762 138.636C344.762 139.557 344.596 140.352 344.264 141.023C343.931 141.693 343.475 142.21 342.896 142.574C342.316 142.938 341.654 143.119 340.91 143.119C340.166 143.119 339.504 142.938 338.924 142.574C338.345 142.21 337.889 141.693 337.556 141.023C337.224 140.352 337.058 139.557 337.058 138.636C337.058 137.716 337.224 136.92 337.556 136.25C337.889 135.58 338.345 135.062 338.924 134.699C339.504 134.335 340.166 134.153 340.91 134.153C341.654 134.153 342.316 134.335 342.896 134.699C343.475 135.062 343.931 135.58 344.264 136.25C344.596 136.92 344.762 137.716 344.762 138.636ZM343.74 138.636C343.74 137.881 343.613 137.243 343.36 136.723C343.11 136.203 342.771 135.81 342.342 135.543C341.916 135.276 341.438 135.142 340.91 135.142C340.382 135.142 339.903 135.276 339.474 135.543C339.048 135.81 338.708 136.203 338.455 136.723C338.205 137.243 338.08 137.881 338.08 138.636C338.08 139.392 338.205 140.03 338.455 140.55C338.708 141.07 339.048 141.463 339.474 141.73C339.903 141.997 340.382 142.131 340.91 142.131C341.438 142.131 341.916 141.997 342.342 141.73C342.771 141.463 343.11 141.07 343.36 140.55C343.613 140.03 343.74 139.392 343.74 138.636ZM353.46 134.273V143H352.437L347.681 136.148H347.596V143H346.539V134.273H347.562L352.335 141.142H352.42V134.273H353.46ZM355.097 135.21V134.273H361.643V135.21H358.898V143H357.841V135.21H355.097ZM363.274 143V134.273H368.541V135.21H364.33V138.159H368.268V139.097H364.33V142.062H368.609V143H363.274ZM377.366 134.273V143H376.343L371.588 136.148H371.502V143H370.445V134.273H371.468L376.241 141.142H376.326V134.273H377.366ZM379.003 135.21V134.273H385.549V135.21H382.805V143H381.748V135.21H379.003ZM387.026 143V142.233L389.907 139.08C390.245 138.71 390.524 138.389 390.742 138.116C390.961 137.841 391.123 137.582 391.228 137.341C391.336 137.097 391.39 136.841 391.39 136.574C391.39 136.267 391.316 136.001 391.169 135.777C391.024 135.553 390.825 135.379 390.572 135.257C390.319 135.135 390.035 135.074 389.72 135.074C389.384 135.074 389.092 135.143 388.842 135.283C388.595 135.419 388.403 135.611 388.267 135.858C388.133 136.105 388.066 136.395 388.066 136.727H387.061C387.061 136.216 387.178 135.767 387.414 135.381C387.65 134.994 387.971 134.693 388.377 134.477C388.786 134.261 389.245 134.153 389.754 134.153C390.265 134.153 390.718 134.261 391.113 134.477C391.508 134.693 391.818 134.984 392.042 135.351C392.267 135.717 392.379 136.125 392.379 136.574C392.379 136.895 392.32 137.209 392.204 137.516C392.09 137.82 391.892 138.159 391.607 138.534C391.326 138.906 390.936 139.361 390.436 139.898L388.475 141.994V142.062H392.532V143H387.026Z" fill="black"/>
</svg>
